<svg width="80" height="80" viewBox="0 0 127 98" fill="none" xmlns="http://www.w3.org/2000/svg">
<path d="M70.9992 6.149C67.9944 6.58098 65.1438 7.72764 62.6784 9.49605C60.2131 11.2645 58.2025 13.6048 56.8096 16.3274C55.5071 19.0911 55.0946 22.2133 55.6299 25.2573C56.1653 28.3013 57.6218 31.1148 59.7955 33.3043C62.1066 35.9856 65.2517 37.7817 68.691 38.3846C72.1303 38.9874 75.6493 38.3593 78.6443 36.608C78.9963 36.3398 79.2904 36.0016 79.5092 35.6135C79.728 35.2254 79.867 34.7953 79.918 34.3488C79.969 33.9023 79.9309 33.4484 79.806 33.0142C79.6811 32.58 79.472 32.1743 79.1909 31.8211C78.9099 31.468 78.5628 31.1747 78.1702 30.9586C77.7776 30.7425 77.3475 30.6079 76.9054 30.563C76.4634 30.5181 76.0184 30.5637 75.597 30.6972C75.1755 30.8306 74.7862 31.0492 74.4521 31.3398C75.1295 31.045 74.2101 31.4451 74.1375 31.4767C74.0649 31.5083 73.6778 31.6768 73.4601 31.7716C73.3604 31.8284 73.255 31.8742 73.1455 31.9085C72.9169 31.9631 72.6854 32.005 72.4518 32.0338L71.8791 32.1065L71.3817 32.0876C70.8492 32.0545 70.3302 31.986 69.7762 31.9034C69.5024 31.8314 69.2329 31.7423 68.9694 31.6365C68.4896 31.4653 68.019 31.2673 67.5601 31.0433L67.4954 30.8948L67.4308 30.7463L66.9117 30.4131C66.3817 30.0551 65.8895 29.6514 65.4079 29.2724L65.3325 29.0991L65.2572 28.9259L64.8267 28.4658C64.4428 28.037 64.0903 27.5806 63.7718 27.1002L63.6211 26.7538L63.3949 26.2342L62.7703 24.7991L62.5764 24.3536L62.4146 23.4529L62.2638 23.1064C62.2805 22.8988 62.2858 22.6902 62.2797 22.4815C62.3043 21.9867 62.3697 21.4956 62.4751 21.0132L62.561 20.6815C62.665 20.3375 62.7869 19.9996 62.9262 19.6691L63.2297 18.9779C63.4926 18.5414 63.7805 18.1212 64.0921 17.7195C64.2694 17.4657 64.4818 17.2263 64.6699 16.9972C65.0973 16.5558 65.5515 16.1419 66.0298 15.7579C66.3202 15.6315 66.5325 15.3919 66.7905 15.1913L67.226 15.0017C67.3954 14.928 67.7099 14.7911 67.6857 14.8017C67.6615 14.8122 68.2664 14.5489 68.5567 14.4226C68.8471 14.2962 69.5245 14.0013 70.0084 13.7907C70.1965 13.6943 70.3904 13.6099 70.5891 13.538C70.7827 13.4537 70.9762 13.3695 71.1698 13.2852C71.3634 13.201 72.1861 13.1078 72.7104 13.0562C73.2348 13.0045 73.2348 13.0045 73.5198 12.9982C73.6112 12.9445 73.7086 12.9021 73.8101 12.8718C74.2962 12.876 74.782 12.9103 75.2649 12.9744L76.1954 13.1286L76.3648 13.0549L76.5638 13.1154C77.1017 13.2934 77.6746 13.4855 78.2098 13.7234C78.5349 13.8625 78.8527 14.0188 79.1619 14.1919L79.3476 14.2878L79.4014 14.4115C79.8856 14.7305 80.3697 15.0495 80.8513 15.4286L81.5265 15.9882L82.0404 16.4414C83.0414 17.4678 83.9302 18.6008 84.6908 19.8202L84.8309 20.1418C85.0032 20.5377 85.1647 20.9089 85.337 21.3048C85.6638 21.9566 85.955 22.6257 86.2093 23.309C86.3515 23.5702 86.4704 23.8435 86.5647 24.1255C86.737 24.5214 86.7586 24.5709 86.6401 24.2987L86.8555 24.7936C87.0253 25.5144 87.1601 26.2208 87.2707 26.9379C87.4779 28.2687 87.4941 29.6199 87.3186 30.9491C87.2228 31.8338 87.4777 32.7266 88.0273 33.4312C88.5768 34.1359 89.376 34.5946 90.249 34.7064C91.1219 34.8182 91.9972 34.5739 92.6822 34.0274C93.3672 33.4809 93.8059 32.6768 93.9017 31.7921C95.1934 18.6924 84.9835 4.09454 70.9992 6.149Z" fill="#FDB970"/>
<path d="M98.2343 90.029C98.2798 87.1103 97.6613 84.2135 96.4241 81.5512C95.1869 78.8888 93.3624 76.5286 91.0847 74.6439C88.758 72.7403 85.9592 71.4852 82.982 71.0102C80.0048 70.5352 76.9591 70.8579 74.1648 71.9444C70.9195 73.112 68.0934 75.1818 66.0266 77.9045C63.9598 80.6272 62.7405 83.8869 62.5154 87.291C62.5632 88.1571 62.951 88.9736 63.5966 89.5676C64.2422 90.1617 65.0951 90.4868 65.9748 90.4741C66.8544 90.4614 67.6917 90.1119 68.3097 89.4996C68.9276 88.8873 69.2776 88.0601 69.2857 87.1933C69.4787 85.3595 70.1509 83.6102 71.2367 82.1155C72.3225 80.6209 73.7849 79.432 75.4815 78.6646C77.1358 77.7655 79.0169 77.3449 80.9103 77.4509C82.8036 77.5568 84.6329 78.185 86.1891 79.2637C87.7197 80.3903 88.9823 81.8333 89.8872 83.4902C90.792 85.1472 91.3168 86.9773 91.4243 88.8505C91.5514 90.7519 91.1864 92.6501 90.3638 94.367C89.5411 96.084 88.2876 97.5634 86.7209 98.6664C84.8879 100.046 82.7395 100.965 80.4594 101.345C78.1793 101.725 75.8353 101.554 73.628 100.847C72.7567 100.633 71.8377 100.765 71.0692 101.213C70.3008 101.662 69.7445 102.392 69.5205 103.245C69.3245 104.101 69.4714 105.001 69.9307 105.759C70.39 106.516 71.1263 107.072 71.9867 107.312C83.8851 111.158 97.857 102.76 98.2343 90.029Z" fill="#FDB970"/>
<path d="M45.7828 64.9282C46.5206 61.8543 46.5898 58.663 45.9858 55.5685C45.3818 52.474 44.1186 49.5478 42.2807 46.986C40.3763 44.438 37.8798 42.3873 35.0025 41.0072C32.1251 39.6272 28.9516 38.9585 25.7501 39.0576C23.9039 39.1862 22.101 39.6875 20.4517 40.531C18.8024 41.3745 17.3414 42.5424 16.1578 43.9634C14.9743 45.3844 14.0931 47.0286 13.5681 48.7956C13.0431 50.5626 12.8853 52.4152 13.1045 54.2403C13.5082 57.803 19.0472 56.9892 18.6377 53.4411C18.5171 52.3977 18.607 51.3395 18.9022 50.3285C19.1974 49.3175 19.6919 48.3738 20.3569 47.5527C21.022 46.7316 21.8441 46.0495 22.7753 45.5463C23.7065 45.0431 24.7281 44.7287 25.7804 44.6218C30.1599 44.1433 34.7287 46.595 37.4394 49.8795C42.9669 56.6081 41.7772 68.7888 33.3173 72.5072C31.2694 73.4764 28.9864 73.836 26.745 73.5424C24.5036 73.2489 22.3999 72.3148 20.6889 70.8534C20.0896 70.4279 19.3447 70.2546 18.6148 70.3709C17.8848 70.4872 17.2283 70.8837 16.7866 71.475C16.3663 72.0772 16.1933 72.8152 16.3032 73.5372C16.4132 74.2591 16.7976 74.9099 17.3775 75.3555C21.8476 79.3745 28.4158 80.0001 34.0124 78.1692C36.9457 77.1443 39.5691 75.388 41.6305 73.0691C43.6918 70.7502 45.1217 67.9467 45.7828 64.9282Z" fill="#FDB970"/>
</svg>
