<svg width="1" height="1" viewBox="0 0 17 212" fill="none" xmlns="http://www.w3.org/2000/svg">
<g filter="url(#filter0_d_3_1521)">
<path d="M55.3584 203.67C52.6884 201.26 51.1784 198.12 49.7984 194.89C45.1184 183.94 39.7884 173.33 33.0184 163.5C30.4184 159.72 27.7084 156.01 24.4584 152.73C23.4284 151.69 23.4684 151.09 24.5484 150.08C24.6384 150 24.8184 149.92 24.8184 149.86C24.6284 148.12 26.1484 147.4 27.0084 146.34C37.6884 133.21 44.6984 118.37 47.9484 101.75C49.3184 94.7303 50.4184 87.6804 51.2584 80.5804C51.2784 80.4204 51.2884 80.2604 51.3184 80.1004C51.5784 78.3504 52.3084 77.4003 53.5484 77.2003C54.7384 77.0103 55.7684 77.7804 56.5184 79.3304C58.3684 83.1304 58.7984 87.2804 59.4484 91.3804C61.0684 101.59 62.6884 111.8 65.9184 121.67C68.9784 131.03 73.7284 139.37 80.7184 146.39C81.7084 147.38 82.9784 147.44 84.0384 148.09C84.4584 148.35 85.1184 148.28 85.1084 148.99C85.1084 149.61 84.5184 149.64 84.0684 149.79C84.4784 150.47 84.8284 151.1 84.7584 151.86C84.6184 153.45 83.0984 154.34 81.5784 153.59C80.7884 153.2 80.4884 153.45 80.0484 154.01C74.7084 160.67 70.3484 167.95 66.4184 175.5C62.5084 183.01 59.3184 190.83 56.4184 198.78C56.0284 199.84 56.2084 200.85 56.5184 201.8C56.8184 202.71 56.6484 203.25 55.8484 203.67H55.3684H55.3584ZM27.4784 150.62C39.9484 162.6 47.3884 177.67 54.2484 193.26C54.3784 192.81 54.4584 192.51 54.5484 192.21C57.2384 182.97 61.2384 174.29 66.0784 166.01C69.2184 160.64 72.4284 155.3 76.6884 150.7C77.1784 150.17 76.8284 149.99 76.5184 149.67C69.6484 142.75 64.8584 134.54 61.5984 125.41C57.7884 114.75 55.9884 103.65 54.4084 92.5003C54.3684 92.2403 54.5684 91.8303 54.0084 91.7403C53.5684 94.2203 53.1384 96.6804 52.7084 99.1504C50.2684 113.1 45.6284 126.2 37.7984 138.08C34.7684 142.67 31.8084 147.33 27.4684 150.61L27.4784 150.62Z" fill="#1F1F30"/>
<path d="M150.298 79.9605C149.148 79.7505 148.188 80.4706 147.138 80.7806C143.968 81.7206 140.888 82.9105 137.948 84.4505C132.858 87.1005 129.818 91.4407 127.698 96.6107C125.138 102.851 123.728 109.391 122.478 115.981C122.268 117.081 122.038 118.171 121.738 119.251C121.298 120.841 120.228 121.731 118.998 121.621C117.688 121.501 116.808 120.401 116.718 118.701C116.468 114.191 116.308 109.681 115.988 105.181C115.428 97.2407 114.418 89.3707 111.368 81.9207C111.158 81.4007 110.988 80.8507 110.688 80.3907C109.388 78.4607 109.778 76.5107 110.608 74.5907C112.408 70.4607 114.358 66.4006 116.078 62.2406C120.338 51.9506 123.148 41.2506 125.118 30.3106C125.218 29.7606 125.348 29.2205 125.538 28.6905C125.898 27.6405 126.638 27.0006 127.778 27.0706C128.908 27.1406 129.618 27.8705 129.828 28.9405C130.018 29.9105 130.068 30.9207 130.128 31.9107C130.668 40.8507 131.798 49.7006 134.368 58.3206C135.918 63.5206 138.498 68.0606 142.438 71.8106C143.188 72.5306 143.928 73.2606 144.648 74.0006C144.988 74.3406 145.478 74.6707 145.578 75.0807C146.238 77.7307 148.568 77.1107 150.328 77.6007C150.368 77.6107 150.408 77.6007 150.448 77.6007C151.318 77.6007 152.088 77.7907 152.138 78.8507C152.168 79.5907 151.488 79.9708 150.298 79.9308V79.9605ZM126.258 42.2506C126.128 42.6306 126.078 42.7607 126.048 42.9007C123.308 54.1907 119.448 65.0607 113.578 75.1307C112.858 76.3707 112.488 77.2206 113.718 78.2906C114.238 78.7406 114.508 79.4807 114.858 80.1007C117.038 84.1007 118.258 88.4307 119.108 92.8807C119.748 96.2307 120.158 99.6107 120.438 103.161C120.608 102.951 120.718 102.881 120.738 102.791C121.408 100.111 122.408 97.5506 123.388 94.9806C126.228 87.5806 131.048 82.0807 138.518 79.1007C139.598 78.6707 140.688 78.2907 141.858 77.8507C136.378 74.0007 132.768 68.8906 130.488 62.8106C128.918 58.6106 127.968 54.2406 127.268 49.8206C126.888 47.3906 126.618 44.9406 126.258 42.2506Z" fill="#1F1F30"/>
<path d="M28.7285 42.6105C28.7085 43.2305 28.5085 43.8004 28.1585 44.2904C24.7085 49.0704 23.1084 54.6506 21.3784 60.1706C19.7384 65.3606 18.6185 70.6605 17.9885 76.0705C17.7885 77.7505 16.8684 78.7206 15.5584 78.6706C14.2484 78.6206 13.3984 77.6006 13.3284 75.9106C13.0384 68.3806 11.9685 60.9704 9.84846 53.7304C9.13846 51.3104 8.09845 49.0205 6.71845 46.9006C6.24845 46.1706 5.86848 45.3506 4.86848 45.1706C4.76848 45.1506 4.66845 45.0404 4.58845 44.9604C3.67845 44.0804 3.84848 41.6004 4.92848 40.9904C5.38848 40.7304 5.48845 40.3404 5.64845 39.9604C9.55845 30.7404 11.8884 21.1206 12.9384 11.1806C13.2384 8.32058 13.6985 5.48049 13.7185 2.59049C13.7185 2.35049 13.7684 2.11053 13.8084 1.88053C14.0284 0.700533 14.7785 -0.019594 15.7785 0.00040603C16.8285 0.020406 17.6085 0.840455 17.7185 2.05045C17.9685 4.67045 18.1084 7.31057 18.4584 9.92057C19.4584 17.3606 20.7784 24.7405 23.1984 31.8805C24.2284 34.9205 25.6385 37.7704 27.7285 40.2504C28.3085 40.9304 28.7584 41.6805 28.7084 42.6205L28.7285 42.6105ZM15.5285 18.1903C15.4285 18.3103 15.3884 18.3405 15.3784 18.3805C14.0584 26.3705 11.8284 34.0904 8.55842 41.5004C8.39842 41.8504 8.42847 42.0505 8.67847 42.3405C11.4285 45.4605 12.9984 49.1905 14.1984 53.1105C15.0284 55.8005 15.5185 58.5705 16.1685 61.5905C16.3785 60.8705 16.5085 60.4104 16.6585 59.9604C18.5085 54.1104 20.1084 48.1504 23.5684 42.9604C23.8684 42.5104 23.5884 42.3104 23.3884 42.0404C21.3384 39.3404 19.9584 36.3105 18.8784 33.1105C17.2484 28.2905 16.3785 23.3003 15.5285 18.1903Z" fill="#1F1F30"/>
</g>
<defs>
<filter id="filter0_d_3_1521" x="0" y="0" width="156.139" height="211.67" filterUnits="userSpaceOnUse" color-interpolation-filters="sRGB">
<feFlood flood-opacity="0" result="BackgroundImageFix"/>
<feColorMatrix in="SourceAlpha" type="matrix" values="0 0 0 0 0 0 0 0 0 0 0 0 0 0 0 0 0 0 127 0" result="hardAlpha"/>
<feOffset dy="4"/>
<feGaussianBlur stdDeviation="2"/>
<feComposite in2="hardAlpha" operator="out"/>
<feColorMatrix type="matrix" values="0 0 0 0 0 0 0 0 0 0 0 0 0 0 0 0 0 0 0.25 0"/>
<feBlend mode="normal" in2="BackgroundImageFix" result="effect1_dropShadow_3_1521"/>
<feBlend mode="normal" in="SourceGraphic" in2="effect1_dropShadow_3_1521" result="shape"/>
</filter>
</defs>
</svg>
