<svg width="80" height="80" viewBox="0 0 215 208" fill="none" xmlns="http://www.w3.org/2000/svg">
<path d="M134.55 74.926C125.65 66.506 113.12 63.816 101.33 66.576C89.5698 69.336 79.4298 77.326 74.3598 88.326C68.3598 101.346 68.9299 116.786 75.3899 129.526C76.0599 130.856 77.3499 131.016 78.3899 130.536C89.8899 140.486 107.23 142.346 121.12 136.416C121.35 138.096 123.08 139.326 124.81 138.356C135.65 132.266 143.88 121.196 145.89 108.846C147.89 96.536 143.66 83.546 134.56 74.926H134.55ZM141.39 104.096C141.06 111.636 138.04 118.806 133.34 124.636C132.51 123.636 131.32 123.536 130.16 124.036C127.6 125.156 125.38 127.036 123.76 129.326C113.61 135.876 99.8698 136.656 88.9598 131.486C85.0998 129.656 81.6798 127.166 78.8198 123.986C78.5898 123.736 78.3398 123.556 78.0898 123.426C74.4798 114.246 74.1399 103.806 77.2599 94.436C80.6499 84.246 88.4598 76.156 98.5998 72.586C108.44 69.126 119.53 69.876 128.13 76.066C136.87 82.356 141.84 93.4361 141.37 104.106L141.39 104.096Z" fill="#BC4A97"/>
<path d="M87.8303 57.3163C87.8203 58.0063 87.7803 58.6864 87.7003 59.3764C87.5803 60.4764 87.0104 61.4664 85.8704 61.7864C84.9004 62.0564 83.4803 61.6364 83.0403 60.6364C81.0603 56.0564 78.5503 51.7163 75.5603 47.7163C70.4603 40.8963 63.8703 35.1463 56.4803 30.9363C54.5503 29.8463 52.5703 28.8263 50.5403 27.9563C49.7603 27.6263 48.9604 27.3164 48.1504 27.1164C54.7004 25.1764 60.7903 27.5764 66.0403 31.5964C70.5203 35.0264 74.3804 39.6364 77.3904 43.7464C80.7504 48.3364 83.9803 53.1163 87.8303 57.3163Z" fill="#BC4A97"/>
<path d="M87.8301 57.3162C83.9801 53.1162 80.7501 48.3362 77.3901 43.7462C74.3801 39.6362 70.52 35.0262 66.04 31.5962L66.2101 31.3862C67.6501 32.4862 69.0501 33.6262 70.4001 34.8262C73.3001 37.3862 75.9601 40.2162 78.3801 43.2462C79.3601 42.9662 80.4901 43.1962 81.2201 44.2562C81.2601 44.3262 81.3001 44.3862 81.3501 44.4462C81.5101 44.3262 81.6801 44.2162 81.8801 44.1262C82.8601 43.6962 84.1801 43.9862 84.8401 44.8662C84.9001 44.9562 84.9601 45.0462 85.0101 45.1462C86.2301 47.5462 87.0701 50.1062 87.5101 52.7262C87.5501 52.8062 87.5801 52.8862 87.6201 52.9562C87.9901 53.6462 88.0302 54.4162 87.7802 55.0762C87.8302 55.8262 87.8501 56.5662 87.8301 57.3162Z" fill="#BC4A97"/>
<path d="M48.0102 22.0063C47.0002 22.2363 45.9902 22.5462 44.9902 22.9362C39.6802 25.0462 35.1401 29.0462 32.6901 34.1862C31.7001 34.4062 30.8302 35.1863 30.7702 36.5163C30.7602 36.6663 30.7602 36.8263 30.7602 36.9763C30.4902 36.4563 30.4102 35.8463 30.6102 35.2763C30.7302 34.9263 30.8802 34.5963 31.0102 34.2563C30.8302 33.6263 30.8802 32.9363 31.2702 32.3963C31.8302 31.6463 32.3602 30.8663 32.8902 30.0863C33.6902 28.6163 34.5902 27.1863 35.6202 25.8463C36.2702 24.9963 37.2202 24.4763 38.2202 24.6463C39.8002 23.4463 41.5601 22.5263 43.5401 22.1063C45.0301 21.7863 46.5302 21.7863 48.0102 22.0063Z" fill="#BC4A97"/>
<path d="M202.36 80.0964C202.31 81.6464 203.42 82.4464 204.61 82.5064C204.63 82.5364 204.64 82.5664 204.65 82.5964C204.74 82.8264 204.85 83.0464 204.97 83.2464C206.1 88.1364 204.67 93.6565 202.03 98.0465C197.12 106.186 187.94 109.686 178.96 111.216C173.3 112.176 167.54 112.366 161.81 112.556C159.22 112.646 158.56 115.816 160.55 117.216C170.89 124.506 179.79 133.776 186.71 144.366C187.05 144.886 187.55 145.276 188.11 145.466C189.34 148.926 190.17 152.536 190.59 156.216C190.16 157.416 189.56 158.566 188.83 159.596C188.7 159.686 188.58 159.786 188.45 159.886C188.2 160.086 188.01 160.406 187.89 160.756C186.86 161.886 185.64 162.796 184.26 163.346C180.61 164.806 176.69 163.766 173.31 161.746C169.46 159.436 166.29 156.126 162.99 153.046C159.02 149.356 154.84 145.866 149.7 143.956C147.63 143.196 145.79 145.866 146.88 147.636C151.94 155.796 155.41 164.816 157.1 174.276C157.84 178.406 158.3 182.646 157.95 186.846C157.66 190.366 156.66 194.146 154.22 196.806C148.9 202.636 140.67 200.386 134.73 196.806C127.4 192.386 121.82 185.306 117.14 178.266C111.47 169.726 107.22 160.346 104.53 150.456C103.71 147.436 99.1402 148.616 99.6702 151.546C98.4102 151.226 96.9802 151.706 96.7302 153.236C95.1002 163.146 93.4702 173.056 91.8402 182.976C91.3902 185.736 91.0203 188.556 90.3903 191.296C89.8003 189.996 88.1003 189.656 86.8702 190.256C85.5303 190.916 84.4202 191.876 83.5502 193.026C83.1602 192.816 82.7402 192.676 82.3302 192.676C80.8602 192.676 79.9802 193.836 79.8302 195.176C79.7302 196.146 79.8202 197.076 80.0602 197.956C78.7502 196.776 77.7103 195.256 77.0003 193.596C75.3402 189.696 75.5602 185.236 76.0402 181.126C77.1502 171.476 78.8802 161.866 80.3202 152.266C80.4902 151.156 80.2102 150.056 79.1802 149.446C78.2902 148.926 76.8403 148.986 76.1503 149.836C68.6503 159.066 59.8103 167.196 49.8903 173.776C45.5303 176.676 40.9703 179.636 35.7603 180.686C31.5603 181.526 27.0002 180.156 25.9302 175.556C25.8102 175.036 25.7602 174.506 25.7402 173.966C26.1402 173.576 26.4202 173.026 26.4402 172.306C26.4902 170.876 26.6202 169.456 26.8102 168.046C27.5802 165.726 28.6803 163.536 29.9003 161.416C30.8303 161.226 31.7502 161.036 32.6702 160.846C33.9902 160.566 34.7602 159.006 34.4202 157.766C34.0402 156.396 32.6702 155.746 31.3402 156.016C30.9302 156.106 30.5002 156.176 30.0802 156.246C31.8302 152.146 34.1702 148.286 36.9902 144.816C41.3402 139.936 46.5103 135.776 52.2803 132.616C53.4603 131.966 53.7103 130.876 53.4103 129.916C54.7903 128.896 56.1702 127.876 57.5802 126.896C59.9802 125.216 58.4403 121.896 55.6503 122.326C47.2703 123.596 38.7103 123.156 30.5003 121.176C30.3603 120.306 29.8003 119.526 28.7603 119.306C21.5303 117.786 14.7903 113.426 11.0003 107.326C10.2103 104.796 9.95026 102.086 10.2603 99.3364C10.4003 98.0164 9.0502 96.8864 7.8202 96.8464C7.8002 96.0264 7.83029 95.1964 7.91029 94.3564C8.43029 89.0064 11.2402 83.5564 15.8102 80.5864C21.8502 76.6564 29.5202 77.1864 36.3602 77.9364C45.8502 78.9764 55.3302 80.2164 64.8102 81.3564C66.0302 81.5064 67.1303 80.2964 67.2603 79.1864C67.4103 77.9264 66.6802 76.8364 65.4702 76.4464C55.6102 73.2364 47.2402 66.1565 41.9202 57.2865C41.8502 57.0865 41.7602 56.8764 41.6202 56.6764C41.4902 56.4964 41.3803 56.2964 41.2603 56.1164C39.8203 53.5464 38.6302 50.8464 37.7402 48.0564C36.8902 45.3964 36.3203 42.6864 36.0203 39.9264C37.2003 34.4764 41.1203 29.9365 46.2803 27.7765C46.9103 27.5165 47.5303 27.2964 48.1503 27.1164C48.9603 27.3164 49.7602 27.6264 50.5402 27.9564C52.5702 28.8264 54.5502 29.8464 56.4802 30.9364C63.8702 35.1464 70.4602 40.8964 75.5602 47.7164C78.5502 51.7164 81.0602 56.0564 83.0402 60.6364C83.4802 61.6364 84.9002 62.0565 85.8702 61.7865C87.0102 61.4665 87.5802 60.4764 87.7002 59.3764C87.7802 58.6864 87.8202 58.0064 87.8302 57.3164C89.3702 58.9964 91.0003 60.5765 92.7803 62.0265C93.8303 62.8765 95.2902 63.0465 96.3202 62.0265C96.6202 61.7165 96.8202 61.3564 96.9302 60.9664C98.5002 60.6164 99.9503 59.7464 100.91 58.3064C102.71 55.6164 101.6 51.8565 98.3002 51.1665C97.6602 51.0365 96.9802 51.0465 96.3102 51.1565C94.3402 43.7965 92.9502 36.0764 94.1202 28.5164C95.2202 21.3664 98.7902 14.6364 104.93 10.5764C110.58 6.84638 117.4 6.34643 123.18 10.1264C129.3 14.1164 132.51 21.2564 133.64 28.2564C134.44 33.2064 134.25 38.3065 133.9 43.2765C133.53 48.6265 132.98 53.9664 132.5 59.3064C132.38 60.6564 133.74 61.8064 135 61.8064C135.4 61.8064 135.75 61.7164 136.06 61.5664C137.12 62.4164 138.82 62.4964 139.76 60.9664C140.16 60.3164 140.56 59.6664 140.97 59.0064C141.4 58.8164 141.79 58.4764 142.08 57.9364C143.05 56.1064 144.02 54.2764 145 52.4564C145.3 51.8864 145.37 51.3464 145.29 50.8564C146.26 49.0864 147.22 47.3164 148.19 45.5564C150.09 42.8864 151.65 39.9865 152.84 36.8965C153.09 36.2665 153.03 35.6764 152.78 35.1964C158.51 29.3064 165.85 24.9664 173.83 22.9864C175.69 22.5264 177.65 22.0664 179.58 22.1164C181.28 22.1564 182.53 23.0664 183.42 24.4764C185.55 27.8364 185.55 32.0064 184.65 35.7664C183.64 39.9964 181.68 43.8965 179.54 47.6665C177.28 51.6465 174.88 55.5564 172.36 59.3764C166.68 67.9864 160.34 76.1264 153.41 83.7564C151.53 85.8264 153.9 89.1164 156.44 87.6864C160.91 85.1664 165.54 82.9764 170.3 81.1364C170.49 81.4364 170.72 81.7164 170.99 81.9664C173.03 83.8664 175.94 81.4864 175.17 79.3864C178.28 78.3564 181.43 77.4664 184.62 76.7164C186.26 76.5264 187.9 76.3664 189.55 76.2164C190.11 76.1664 190.68 76.1065 191.25 76.0465C191.86 76.3465 192.46 76.6765 193.04 77.0365C193.88 77.5765 194.93 78.2564 194.76 79.2664C194.27 82.2664 190.01 82.0664 187.8 82.1864C185.95 82.2964 183.98 83.0364 183.42 85.0064C182.92 86.7864 183.9 89.0164 185.84 89.3564C187.17 89.5864 188.53 88.9964 188.91 87.6064C188.95 87.4664 188.97 87.3264 188.98 87.1864C189.15 87.1664 189.32 87.1465 189.46 87.1465C190.39 87.0965 191.32 86.9964 192.24 86.8264C194.09 86.5064 195.92 85.7264 197.3 84.4364C199.59 82.3064 200.4 79.0264 199.11 76.3064C199.34 76.3864 199.58 76.4764 199.8 76.5764L199.82 76.5964C200.6 77.1464 201.32 77.7664 201.97 78.4564C202.24 78.9264 202.38 79.4764 202.36 80.0964Z" fill="#BC4A97"/>
<path d="M46.2802 27.7764C41.1202 29.9364 37.2002 34.4763 36.0202 39.9263C36.3202 42.6863 36.8902 45.3963 37.7402 48.0563C38.6302 50.8463 39.8202 53.5464 41.2602 56.1164C41.3802 56.2964 41.4902 56.4963 41.6202 56.6763C41.7602 56.8763 41.8501 57.0864 41.9201 57.2864C47.2401 66.1564 55.6102 73.2363 65.4702 76.4463C66.6802 76.8363 67.4102 77.9263 67.2602 79.1863C67.1302 80.2963 66.0301 81.5064 64.8101 81.3564C55.3301 80.2164 45.8502 78.9763 36.3602 77.9363C29.5202 77.1863 21.8501 76.6563 15.8101 80.5863C11.2401 83.5564 8.43022 89.0064 7.91022 94.3564C7.83022 95.1964 7.80013 96.0264 7.82013 96.8464C9.05013 96.8864 10.4002 98.0163 10.2602 99.3363C9.9502 102.086 10.2102 104.796 11.0002 107.326C14.7902 113.426 21.5302 117.786 28.7602 119.306C29.8002 119.526 30.3602 120.306 30.5002 121.176C38.7102 123.156 47.2702 123.596 55.6502 122.326C58.4402 121.896 59.9801 125.216 57.5801 126.896C56.1701 127.876 54.7902 128.896 53.4102 129.916C53.7102 130.876 53.4602 131.966 52.2802 132.616C46.5102 135.776 41.3402 139.936 36.9902 144.816C34.1702 148.286 31.8301 152.146 30.0801 156.246C30.5001 156.176 30.9302 156.106 31.3402 156.016C32.6702 155.746 34.0401 156.396 34.4201 157.766C34.7601 159.006 33.9901 160.566 32.6701 160.846C31.7501 161.036 30.8302 161.226 29.9002 161.416C28.6802 163.536 27.5801 165.726 26.8101 168.046C26.6201 169.456 26.4901 170.876 26.4401 172.306C26.4201 173.026 26.1402 173.576 25.7402 173.966C25.7602 174.506 25.8101 175.036 25.9301 175.556C27.0001 180.156 31.5602 181.526 35.7602 180.686C40.9702 179.636 45.5302 176.676 49.8902 173.776C59.8102 167.196 68.6502 159.066 76.1502 149.836C76.8402 148.986 78.2901 148.926 79.1801 149.446C80.2101 150.056 80.4901 151.156 80.3201 152.266C78.8801 161.866 77.1501 171.476 76.0401 181.126C75.5601 185.236 75.3402 189.696 77.0002 193.596C77.7102 195.256 78.7501 196.776 80.0601 197.956C79.8201 197.076 79.7301 196.146 79.8301 195.176C79.9801 193.836 80.8601 192.676 82.3301 192.676C82.7402 192.676 83.1601 192.816 83.5501 193.026C84.4201 191.876 85.5302 190.916 86.8702 190.256C88.1002 189.656 89.8002 189.996 90.3902 191.296C91.0202 188.556 91.3902 185.736 91.8402 182.976C93.4702 173.056 95.1002 163.146 96.7302 153.236C96.9802 151.706 98.4101 151.226 99.6701 151.546C99.1401 148.616 103.71 147.436 104.53 150.456C107.22 160.346 111.47 169.726 117.14 178.266C121.82 185.306 127.4 192.386 134.73 196.806C140.67 200.386 148.9 202.636 154.22 196.806C156.66 194.146 157.66 190.366 157.95 186.846C158.3 182.646 157.84 178.406 157.1 174.276C155.41 164.816 151.94 155.796 146.88 147.636C145.79 145.866 147.63 143.196 149.7 143.956C154.84 145.866 159.02 149.356 162.99 153.046C166.29 156.126 169.46 159.436 173.31 161.746C176.69 163.766 180.61 164.806 184.26 163.346C185.64 162.796 186.86 161.886 187.89 160.756C187.78 161.066 187.72 161.376 187.72 161.646C187.72 162.226 187.97 162.896 188.38 163.326C187.82 163.796 187.27 164.266 186.71 164.746C186.27 165.126 185.95 165.936 185.98 166.506C186 166.996 186.12 167.436 186.39 167.826C181.62 169.866 176.31 169.036 171.81 166.646C165.56 163.316 160.99 157.336 155.46 152.946C159.23 160.896 161.66 169.436 162.69 178.196C163.71 186.876 162.87 197.126 155.13 202.616C147.68 207.906 137.88 204.896 130.92 200.306C122.91 195.036 116.75 187.036 111.68 179.026C108.25 173.606 105.36 167.856 103.04 161.876C103.42 168.176 102.28 174.516 99.7402 180.346C99.5202 181.906 99.2601 183.456 98.9401 184.996C99.0101 185.356 99.0102 185.736 98.8702 186.146C98.6302 186.876 98.3902 187.616 98.1502 188.356C97.3802 191.336 96.4302 194.266 95.2602 197.136C94.8502 198.156 94.0201 198.916 92.9602 198.966C91.3801 201.996 89.0402 204.516 85.5302 205.586C84.7102 205.836 83.7901 205.556 83.1701 204.986C83.0201 204.976 82.8702 204.956 82.7102 204.916C82.0702 204.766 81.4702 204.556 80.8802 204.316L79.3001 203.796C77.0501 203.686 74.8402 203.016 72.8802 201.616C71.8402 200.866 71.3702 199.716 71.8602 198.496C72.1002 197.906 72.6001 197.426 73.1901 197.166C69.6701 190.696 70.6902 182.986 71.7502 175.966C72.5602 170.516 73.3801 165.066 74.2001 159.616C70.8501 163.216 67.3002 166.626 63.5302 169.786C58.2602 174.196 52.6301 178.246 46.6701 181.676C41.6101 184.586 35.1002 187.136 29.2202 185.406C26.3202 184.556 23.7502 182.566 22.2802 179.906C20.8102 177.236 20.5301 174.176 20.9301 171.186C21.1001 169.956 21.3702 168.746 21.7202 167.566C21.2202 167.386 20.7701 167.046 20.4601 166.496C18.3501 162.626 19.0301 158.396 20.9601 154.606C22.6601 151.306 25.2102 148.536 27.7502 145.876C30.5202 142.986 33.3801 140.186 36.3301 137.496C40.0001 134.146 43.8202 130.986 47.7502 127.956C38.8602 128.186 29.9802 126.796 21.5902 123.706C20.5602 123.336 19.8801 122.536 19.7901 121.506C18.6301 120.956 17.5101 120.326 16.4301 119.636C16.0001 120.016 15.4602 120.256 14.8502 120.256C9.25016 120.256 4.21015 116.496 2.46015 111.206C1.85015 109.366 3.92021 107.536 5.65021 108.146C3.11021 103.196 2.27017 97.5564 3.23017 91.9864C4.35017 85.4964 8.15017 79.3164 13.8602 75.9064C20.9402 71.6764 29.5501 72.1463 37.4201 73.0563C42.0401 73.5963 46.6602 74.1463 51.2802 74.7063C45.6902 70.6463 40.9802 65.4264 37.4902 59.5064C32.5002 54.7064 30.0502 47.5764 30.8402 40.7364C30.7502 39.4864 30.7202 38.2364 30.7602 36.9764C31.0702 37.6364 31.6702 38.1664 32.3602 38.3564C33.7302 38.7264 34.9901 37.8864 35.4301 36.6064C35.8701 35.3464 36.4202 34.1364 37.0302 32.9664C38.9702 30.4264 41.3102 27.8864 44.3502 27.0464C45.6402 26.6964 46.9102 26.7964 48.1502 27.1164C47.5302 27.2964 46.9102 27.5164 46.2802 27.7764Z" fill="#BC4A97"/>
<path d="M138.29 51.3163C138.21 52.1063 138.14 52.8864 138.06 53.6664C138.34 53.1464 138.62 52.6364 138.9 52.1264C138.65 51.9064 138.44 51.6263 138.29 51.3163ZM85.4303 44.4563C86.2403 45.6263 87.0604 46.7963 87.8704 47.9663C88.7604 49.2263 89.6004 50.6363 90.5304 51.9663C90.9304 52.4563 91.3404 52.9463 91.7504 53.4263C89.0804 43.5963 87.3904 33.1264 90.1604 23.1564C92.3004 15.4864 97.6704 8.40633 104.87 4.83633C112.33 1.14633 120.8 1.9164 127.39 7.0264C140.07 16.8764 139.93 33.3564 138.57 48.4164C141.72 40.0864 147.15 32.7264 154.18 27.2464C160.71 22.1464 168.48 18.5163 176.73 17.3463C179.27 16.9863 181.89 16.9763 184.17 18.3363C186.06 19.4663 187.53 21.2964 188.46 23.2764C190.57 27.7764 190.58 32.7464 189.37 37.5064C188.18 42.2064 185.92 46.5864 183.52 50.7764C181.02 55.1464 178.36 59.4163 175.55 63.5863C172.23 68.5163 168.69 73.2963 164.96 77.9263C166.8 77.1363 168.66 76.3963 170.54 75.7163C170.38 75.9463 170.23 76.1963 170.11 76.4663C169.4 77.9863 169.42 79.7564 170.3 81.1364C165.54 82.9764 160.91 85.1663 156.44 87.6863C153.9 89.1163 151.53 85.8264 153.41 83.7564C160.34 76.1264 166.68 67.9864 172.36 59.3764C174.88 55.5564 177.28 51.6464 179.54 47.6664C181.68 43.8964 183.64 39.9964 184.65 35.7664C185.55 32.0064 185.55 27.8363 183.42 24.4763C182.53 23.0663 181.28 22.1564 179.58 22.1164C177.65 22.0664 175.69 22.5264 173.83 22.9864C165.85 24.9664 158.51 29.3063 152.78 35.1963C153.03 35.6763 153.09 36.2664 152.84 36.8964C151.65 39.9864 150.09 42.8863 148.19 45.5563C147.22 47.3163 146.26 49.0863 145.29 50.8563C145.37 51.3464 145.3 51.8863 145 52.4563C144.02 54.2763 143.05 56.1063 142.08 57.9363C141.79 58.4763 141.4 58.8164 140.97 59.0064C140.56 59.6664 140.16 60.3163 139.76 60.9663C138.82 62.4963 137.12 62.4163 136.06 61.5663C135.75 61.7163 135.4 61.8063 135 61.8063C133.74 61.8063 132.38 60.6563 132.5 59.3063C132.98 53.9663 133.53 48.6264 133.9 43.2764C134.25 38.3064 134.44 33.2064 133.64 28.2564C132.51 21.2564 129.3 14.1164 123.18 10.1264C117.4 6.34637 110.58 6.84632 104.93 10.5763C98.7903 14.6363 95.2204 21.3664 94.1204 28.5164C92.9504 36.0764 94.3403 43.7964 96.3103 51.1564C96.9803 51.0464 97.6603 51.0364 98.3003 51.1664C101.6 51.8564 102.71 55.6163 100.91 58.3063C99.9504 59.7463 98.5003 60.6163 96.9303 60.9663C96.8203 61.3563 96.6203 61.7164 96.3203 62.0264C95.2903 63.0464 93.8304 62.8764 92.7804 62.0264C91.0004 60.5764 89.3703 58.9963 87.8303 57.3163C87.8503 56.5663 87.8304 55.8263 87.7804 55.0763C88.0304 54.4163 87.9904 53.6463 87.6204 52.9563C87.5804 52.8863 87.5504 52.8063 87.5104 52.7263C87.0704 50.1063 86.2304 47.5464 85.0104 45.1464C84.9604 45.0464 84.9003 44.9564 84.8403 44.8664L85.4303 44.4563Z" fill="#BC4A97"/>
<path d="M48.0103 22.0063C51.7803 22.5863 55.4402 24.6163 58.6702 26.4363C61.2902 27.9063 63.8102 29.5664 66.2102 31.3864L66.0402 31.5963C60.7902 27.5763 54.7003 25.1763 48.1503 27.1163C46.9103 26.7963 45.6402 26.6964 44.3502 27.0464C41.3102 27.8864 38.9703 30.4263 37.0303 32.9663C36.4203 34.1363 35.8702 35.3463 35.4302 36.6063C34.9902 37.8863 33.7302 38.7263 32.3602 38.3563C31.6702 38.1663 31.0703 37.6363 30.7603 36.9763C30.7603 36.8263 30.7603 36.6664 30.7703 36.5164C30.8303 35.1864 31.7002 34.4063 32.6902 34.1863C35.1402 29.0463 39.6802 25.0463 44.9902 22.9363C45.9902 22.5463 47.0003 22.2363 48.0103 22.0063Z" fill="#BC4A97"/>
<path d="M81.8802 44.1265C81.6802 44.2165 81.5102 44.3265 81.3502 44.4465C81.3002 44.3865 81.2602 44.3265 81.2202 44.2565C80.4902 43.1965 79.3602 42.9665 78.3802 43.2465C75.9602 40.2165 73.3003 37.3865 70.4003 34.8265C69.0503 33.6265 67.6502 32.4865 66.2102 31.3865C63.8102 29.5665 61.2902 27.9064 58.6702 26.4364C55.4402 24.6164 51.7803 22.5865 48.0103 22.0065C54.0603 20.6665 60.4102 22.1565 65.7502 25.3265C71.2302 28.5765 75.3602 33.1065 79.1302 37.9865C80.0303 37.8265 81.0202 38.1165 81.6902 39.0765C82.9402 40.8765 84.1802 42.6665 85.4302 44.4565L84.8402 44.8665C84.1802 43.9865 82.8602 43.6965 81.8802 44.1265Z" fill="#BC4A97"/>
<path d="M188.45 159.886C188.58 159.786 188.7 159.686 188.83 159.596C188.54 160.006 188.23 160.396 187.89 160.756C188.01 160.406 188.2 160.086 188.45 159.886Z" fill="#BC4A97"/>
<path d="M188.38 163.326C187.97 162.896 187.72 162.226 187.72 161.646C187.72 161.376 187.78 161.066 187.89 160.756C188.23 160.396 188.54 160.006 188.83 159.596C189.66 158.996 190.56 158.526 191.56 158.306L191.62 158.276C191.62 158.276 191.72 158.266 191.77 158.246C191.81 158.246 191.84 158.236 191.87 158.226C191.91 158.216 191.94 158.216 191.98 158.216C192.03 158.206 192.09 158.196 192.14 158.196C193.34 158.026 194.57 158.056 195.71 158.506C195.88 158.566 196.03 158.636 196.18 158.716C196.05 159.106 195.92 159.496 195.76 159.886C195.32 160.996 194.37 161.566 193.43 161.626C191.75 164.266 189.43 166.496 186.56 167.756C186.5 167.786 186.45 167.806 186.39 167.826C186.12 167.436 186 166.996 185.98 166.506C185.95 165.936 186.27 165.126 186.71 164.746C187.27 164.266 187.82 163.796 188.38 163.326Z" fill="#BC4A97"/>
<path d="M207.36 80.0963C207.44 78.2463 207.25 76.0163 206.66 73.9763C209.12 75.5663 210.29 78.7663 209.7 81.6763C210.22 83.6663 210.44 85.7463 210.33 87.8563C209.82 97.6963 203.72 106.496 195.16 111.136C187.08 115.516 177.9 116.756 168.8 117.266C170.96 119.016 173.07 120.836 175.08 122.746C175.87 121.606 177.53 121.056 178.87 122.316C184.5 127.616 188.89 134.106 191.8 141.206C192.17 141.316 192.51 141.506 192.77 141.806C193.8 142.986 194.6 144.306 195.19 145.696C197.09 149.736 197.55 154.396 196.18 158.716C196.03 158.636 195.88 158.566 195.71 158.506C194.57 158.056 193.34 158.026 192.14 158.196C192.09 158.196 192.03 158.206 191.98 158.216C191.94 158.216 191.91 158.216 191.87 158.226C191.84 158.236 191.81 158.246 191.77 158.246C191.72 158.266 191.66 158.266 191.62 158.276L191.56 158.306C190.56 158.526 189.66 158.996 188.83 159.596C189.56 158.566 190.16 157.416 190.59 156.216C190.17 152.536 189.34 148.926 188.11 145.466C187.55 145.276 187.05 144.886 186.71 144.366C179.79 133.776 170.89 124.506 160.55 117.216C158.56 115.816 159.22 112.646 161.81 112.556C167.54 112.366 173.3 112.176 178.96 111.216C187.94 109.686 197.12 106.186 202.03 98.0464C204.67 93.6564 206.1 88.1363 204.97 83.2463C204.85 83.0463 204.74 82.8263 204.65 82.5963C204.64 82.5663 204.63 82.5363 204.61 82.5063C205.91 82.5763 207.29 81.7663 207.36 80.0963Z" fill="#BC4A97"/>
<path d="M189.74 168.666C188.68 169.336 187.25 168.976 186.52 168.026C186.47 167.966 186.42 167.896 186.39 167.826C186.45 167.806 186.5 167.786 186.56 167.756C189.43 166.496 191.75 164.266 193.43 161.626C194.37 161.566 195.32 160.996 195.76 159.886C195.92 159.496 196.05 159.106 196.18 158.716C196.79 159.046 197.26 159.516 197.46 160.246C197.68 161.056 197.48 162.116 196.82 162.676C196.45 162.996 196.09 163.306 195.72 163.616C195.67 164.436 195.16 165.236 194.48 165.666L189.74 168.666Z" fill="#BC4A97"/>
<path d="M206.66 73.9763C205.96 73.5263 205.16 73.2063 204.27 73.0563C203.92 72.9963 203.6 73.0063 203.29 73.0663C200.92 71.2163 198.15 69.8764 195.23 69.1664C196.69 68.5964 198.08 67.9264 199.7 67.8864C203.58 67.7764 205.67 70.6363 206.66 73.9763Z" fill="#BC4A97"/>
<path d="M201.97 78.4562C201.32 77.7662 200.6 77.1462 199.82 76.5962C200.72 77.0062 201.52 77.6262 201.97 78.4562Z" fill="#BC4A97"/>
<path d="M195.23 69.1665C195.05 69.2365 194.88 69.3065 194.7 69.3665C193.43 69.8265 192.12 70.1965 190.8 70.4565C190.18 70.2665 189.57 70.0864 188.99 69.9464C187.66 69.6164 186.3 69.4164 184.94 69.3264C188.33 68.3564 191.88 68.3465 195.23 69.1665Z" fill="#BC4A97"/>
<path d="M180.75 72.5263C177.3 73.4263 173.89 74.4863 170.54 75.7163C171.51 74.3263 173.11 73.5163 174.77 73.1363C175.26 73.0163 175.75 72.9163 176.25 72.8163C176.02 71.6263 176.58 70.2963 177.98 69.9563C180.27 69.3963 182.61 69.1963 184.94 69.3263C183.93 69.6163 182.94 69.9963 181.97 70.4563C181.08 70.8863 180.72 71.6963 180.75 72.5263Z" fill="#BC4A97"/>
<path d="M175.17 79.3862C175.94 81.4862 173.03 83.8662 170.99 81.9662C170.72 81.7162 170.49 81.4362 170.3 81.1362C171.91 80.5162 173.53 79.9362 175.17 79.3862Z" fill="#BC4A97"/>
<path d="M179.72 77.3563C181.35 77.1263 182.98 76.9063 184.62 76.7163C181.43 77.4663 178.28 78.3564 175.17 79.3864C175.07 79.0964 174.89 78.8164 174.63 78.5464C174.83 78.3864 175.32 78.1664 175.32 78.1664C176.68 77.6464 178.29 77.5663 179.72 77.3563Z" fill="#BC4A97"/>
<path d="M184.62 76.7164C187.94 75.9364 191.3 75.3164 194.69 74.8464C195.03 74.7964 195.33 74.6365 195.59 74.4165C197.09 74.9365 198.52 75.6564 199.8 76.5764C199.58 76.4764 199.34 76.3864 199.11 76.3064C200.4 79.0264 199.59 82.3064 197.3 84.4364C195.92 85.7264 194.09 86.5064 192.24 86.8264C191.32 86.9964 190.39 87.0965 189.46 87.1465C189.32 87.1465 189.15 87.1664 188.98 87.1864C188.98 87.3264 188.95 87.4664 188.91 87.6064C188.53 88.9964 187.17 89.5864 185.84 89.3564C183.9 89.0164 182.92 86.7865 183.42 85.0065C183.98 83.0365 185.95 82.2964 187.8 82.1864C190.01 82.0664 194.27 82.2665 194.76 79.2665C194.93 78.2565 193.88 77.5765 193.04 77.0365C192.46 76.6765 191.86 76.3465 191.25 76.0465C190.68 76.1065 190.11 76.1664 189.55 76.2164C187.9 76.3664 186.26 76.5264 184.62 76.7164Z" fill="#BC4A97"/>
<path d="M202.36 80.0963C202.38 79.4763 202.24 78.9263 201.97 78.4563C203.09 79.6263 204 80.9863 204.61 82.5063C203.42 82.4463 202.31 81.6463 202.36 80.0963Z" fill="#BC4A97"/>
<path d="M206.66 73.9764C207.25 76.0164 207.44 78.2464 207.36 80.0964C207.29 81.7664 205.91 82.5765 204.61 82.5065C204 80.9865 203.09 79.6264 201.97 78.4564C201.52 77.6264 200.72 77.0064 199.82 76.5964C199.82 76.5964 199.81 76.5764 199.8 76.5764C198.52 75.6564 197.09 74.9365 195.59 74.4165C195.33 74.6365 195.03 74.7964 194.69 74.8464C191.3 75.3164 187.94 75.9364 184.62 76.7164C182.98 76.9064 181.35 77.1264 179.72 77.3564C178.29 77.5664 176.68 77.6465 175.32 78.1665C175.32 78.1665 174.83 78.3865 174.63 78.5465C174.89 78.8165 175.07 79.0965 175.17 79.3865C173.53 79.9365 171.91 80.5165 170.3 81.1365C169.42 79.7565 169.4 77.9864 170.11 76.4664C170.23 76.1964 170.38 75.9464 170.54 75.7164C173.89 74.4864 177.3 73.4265 180.75 72.5265C180.72 71.6965 181.08 70.8864 181.97 70.4564C182.94 69.9964 183.93 69.6164 184.94 69.3264C186.3 69.4164 187.66 69.6164 188.99 69.9464C189.57 70.0864 190.18 70.2664 190.8 70.4564C192.12 70.1964 193.43 69.8265 194.7 69.3665C194.88 69.3065 195.05 69.2365 195.23 69.1665C198.15 69.8765 200.92 71.2164 203.29 73.0664C203.6 73.0064 203.92 72.9964 204.27 73.0564C205.16 73.2064 205.96 73.5264 206.66 73.9764Z" fill="#BC4A97"/>
<path d="M0 95.3362L0.27002 95.3562L0.25 101.316H0V95.3262V95.3362Z" fill="#B9B9B9"/>
<path d="M0.259878 101.316L0.279898 95.3562C0.629898 94.5762 0.479878 93.7461 0.509878 92.9361C0.989878 89.9761 1.55985 87.0462 2.85985 84.3161C6.00985 77.7061 11.3499 73.7662 18.2499 71.8362C24.3399 70.1262 30.5499 69.5762 36.8599 70.0762C38.6899 70.2162 40.5099 70.3762 42.3599 70.6262C42.2899 70.0962 41.8498 69.9062 41.5498 69.6162C34.6698 63.1462 30.0198 55.3962 28.1698 46.0762C27.0998 40.7062 27.1899 35.3862 29.6299 30.3862C32.7499 23.9962 38.1398 20.4362 44.9698 19.1262C53.6698 17.4562 61.7398 19.3961 69.3198 23.8161C76.2198 27.8361 81.4599 33.4762 85.6299 40.2062C86.0199 40.8362 86.4298 41.4662 86.9498 42.2662C85.7498 31.6262 86.6699 21.6062 92.2799 12.4562C96.0899 6.23616 101.3 1.68616 108.66 0.456158C119.48 -1.35384 128.46 2.24616 135.21 10.8362C140.2 17.1962 142.73 24.5662 142.71 32.7262C142.71 34.0462 142.71 35.3662 142.71 36.7562C143.16 36.6062 143.32 36.1962 143.55 35.8662C148.74 28.6262 155.01 22.5662 162.89 18.2962C166.88 16.1362 171.06 14.5562 175.67 14.2362C183.84 13.6662 190.36 18.7662 191.83 26.8562C193.06 33.6062 191.5 39.8362 188.54 45.8362C184.31 54.4262 178.48 61.9261 172.49 69.3161C171.84 70.1261 171.17 70.9161 170.43 71.8061C171.08 71.8261 171.46 71.4562 171.89 71.2462C176.67 68.7862 181.61 66.7462 186.96 66.0062C193.33 65.1262 199.67 65.1562 205.48 68.4462C210.55 71.3062 213.34 75.8461 214.09 81.5561C215.8 94.4361 208.31 106.176 197.83 111.796C191.83 115.006 185.35 116.786 178.62 117.686C177.12 117.886 175.61 117.976 173.84 118.146C174.93 118.866 175.84 119.456 176.74 120.046C179.35 121.756 181.92 123.516 184.36 125.446C192.81 132.116 198.02 140.846 200.43 151.236C202.8 161.446 196.26 169.576 186.75 171.606C180.22 172.996 174.27 171.376 168.65 168.076C166.13 166.596 163.81 164.836 161.25 162.856C162.53 165.726 163.46 168.416 164.11 171.206C165.82 178.486 166.47 185.776 164.23 193.066C162.15 199.846 158.24 205.036 151.16 207.166C146.14 208.676 141.22 207.796 136.58 205.726C123.03 199.696 113.32 189.836 107.61 176.106C106.95 174.526 106.42 172.896 105.74 171.036C105.49 173.136 105.28 174.996 105.03 176.836C104.02 184.556 102.24 192.056 98.3198 198.886C96.0298 202.876 92.9499 206.056 88.3599 207.346C82.1499 209.096 75.8298 206.496 72.3498 200.876C70.3498 197.646 69.3999 194.086 69.0199 190.356C68.1699 182.176 68.8399 174.096 70.8899 166.136C70.9499 165.906 70.9599 165.666 71.0099 165.356C70.4599 165.546 70.2298 165.986 69.9298 166.316C64.4098 172.306 58.3699 177.696 51.3899 181.936C46.0799 185.156 40.4398 187.196 34.0798 187.056C25.4798 186.866 19.5798 182.046 17.9598 173.566C16.4598 165.656 18.2699 158.266 21.7399 151.196C24.9199 144.736 29.8498 139.676 35.0798 134.876C36.7498 133.346 38.4399 131.856 40.2699 130.226C34.7499 129.916 29.5199 128.966 24.3799 127.526C19.5899 126.196 15.0199 124.346 10.9099 121.476C5.4999 117.696 2.25981 112.536 0.93981 106.106C0.61981 104.536 0.109869 103.006 0.249869 101.376L0.259878 101.316ZM32.2499 73.2462C27.5899 73.1762 22.8099 73.7262 18.1599 75.2162C10.6399 77.6262 5.76979 82.5462 4.03979 90.3562C3.17979 94.2062 2.98985 98.0762 3.35985 102.016C4.15985 110.426 8.11985 116.736 15.7298 120.516C24.4598 124.856 33.7599 126.786 43.4899 126.706C44.5499 126.706 45.5299 126.496 46.4899 126.026C47.5999 125.486 48.7499 125.016 50.0299 125.026C51.2199 125.046 52.0699 125.666 52.2299 126.646C52.3998 127.616 51.8099 128.516 50.6499 128.876C49.6199 129.196 48.5699 129.546 47.5099 129.606C45.6399 129.716 44.2198 130.586 42.8198 131.696C38.1698 135.386 33.9598 139.516 30.0898 144.006C26.9698 147.626 24.3798 151.606 22.7098 156.106C20.5898 161.806 19.4599 167.616 20.8899 173.696C22.5099 180.576 26.7999 183.976 33.8899 184.026C37.3399 184.046 40.6199 183.296 43.7799 181.976C50.7399 179.066 56.5799 174.506 61.9899 169.366C66.5999 164.986 70.8799 160.296 74.6299 155.146C75.3599 154.136 76.3798 153.876 77.2198 154.416C77.9998 154.906 78.2099 155.926 77.7399 156.986C77.6299 157.246 77.4999 157.486 77.3699 157.736C76.4799 159.436 75.6999 161.176 75.1199 163.006C72.4499 171.386 71.1898 179.936 71.9799 188.726C72.2598 191.876 72.9398 194.946 74.3498 197.826C78.0798 205.416 87.1899 206.756 92.8899 200.526C94.2199 199.076 95.2899 197.436 96.1399 195.666C99.5799 188.476 101.08 180.796 101.85 172.936C102.26 168.736 102.74 164.556 103.94 160.496C104.05 160.136 104.17 159.766 104.61 159.756C105.02 159.746 105.28 160.056 105.4 160.396C105.64 161.066 105.85 161.756 106 162.456C108.59 174.626 114.15 185.066 123.73 193.196C128.88 197.566 134.36 201.366 140.93 203.296C144.22 204.266 147.52 204.546 150.8 203.346C155.34 201.676 158.16 198.286 159.9 193.916C161.85 189.026 162.14 183.926 161.59 178.746C160.89 172.196 159.11 166.006 155.56 160.416C153.96 157.886 152.27 155.416 150.64 152.906C149.88 151.746 149.99 150.656 150.88 150.036C151.72 149.446 152.84 149.656 153.64 150.616C158.13 156.016 163.54 160.356 169.34 164.216C174.05 167.346 179.16 169.156 184.95 168.196C192.49 166.946 199.12 160.946 196.61 151.276C194.01 141.246 188.64 132.986 180.25 126.806C176.23 123.846 172.1 121.046 167.59 118.866C166.05 118.116 165.58 117.326 165.84 116.226C166.07 115.226 166.91 114.766 168.52 114.716C169.44 114.686 170.36 114.556 171.27 114.576C178.25 114.726 184.86 112.976 191.34 110.646C203.36 106.316 211.06 95.3461 210.52 83.5661C210.23 77.3561 206.49 72.0661 200.54 70.1861C194.5 68.2761 188.49 68.7862 182.53 70.5862C176.33 72.4562 170.69 75.5062 165.18 78.8362C163.32 79.9662 162.35 80.0762 161.63 79.2062C160.92 78.3562 161.16 77.4262 162.65 75.7862C166.81 71.1962 170.83 66.4962 174.56 61.5462C178.98 55.6762 183.22 49.6762 186.16 42.8862C188.37 37.7762 189.44 32.4662 188.16 26.9062C186.84 21.1762 182.54 17.7762 176.67 17.6662C172.25 17.5862 168.26 19.0762 164.51 21.1662C153.21 27.4462 145.38 36.8862 139.99 48.4962C139.65 49.2162 139.38 49.9762 138.97 50.6562C138.52 51.4262 137.84 51.9462 136.88 51.5762C135.85 51.1762 135.72 50.2962 135.97 49.3862C136.19 48.5862 136.53 47.8062 136.88 47.0462C139.02 42.3562 139.51 37.3461 139.43 32.3061C139.34 26.3161 137.46 20.7762 134.38 15.6662C129.7 7.86624 122.72 3.74622 113.7 3.39622C107.9 3.16622 102.82 5.32614 98.7699 9.56614C93.1699 15.4261 90.5899 22.6261 89.9799 30.5561C89.3298 38.9661 90.7198 47.0862 93.9398 54.8862C94.4998 56.2462 94.2198 57.3062 93.1798 57.7462C92.1898 58.1662 91.2699 57.6862 90.6499 56.3762C88.4999 51.8662 86.0198 47.5462 83.4298 43.2862C79.4498 36.7162 74.6299 30.9462 67.8999 26.9762C60.8499 22.8162 53.3698 20.8162 45.2098 22.5262C36.3698 24.3862 30.8598 31.0062 30.8098 40.0262C30.7798 46.0562 32.6098 51.6662 35.6998 56.8362C40.4498 64.7662 46.9799 70.8362 55.1599 75.1362C56.5199 75.8562 56.9798 76.8861 56.4298 77.9261C55.8898 78.9661 54.7098 79.2061 53.4198 78.4361C46.9498 74.5761 39.8799 73.1762 32.2399 73.2762L32.2499 73.2462Z" fill="black"/>
<path d="M0.4999 92.936C0.4699 93.746 0.619919 94.5761 0.269919 95.3561C0.239919 94.5461 0.0498996 93.716 0.4999 92.936Z" fill="#B9B9B9"/>
<path d="M73.1198 93.4164C73.6898 91.2864 74.6097 89.3063 75.9497 87.5763C82.8497 78.6163 92.0998 73.6064 103.14 71.8764C112.32 70.4364 121.22 71.7263 129.68 75.5863C136.51 78.7063 141.52 83.5563 143.3 91.1063C144.47 96.0663 144.03 101.026 142.69 105.906C139.95 115.856 134.64 124.106 126.25 130.216C119.09 135.436 111.04 137.556 102.21 136.856C95.8897 136.356 89.9397 134.736 84.6697 131.146C78.3797 126.846 74.3397 120.986 73.2097 113.376C72.2897 107.196 73.4098 101.226 75.6198 95.4363C76.1998 93.9263 76.8797 92.4563 77.3397 90.8463L73.6398 93.7063C73.4298 93.6863 73.2498 93.6064 73.1298 93.4164H73.1198ZM109.58 77.0364C108.23 77.1064 106.87 77.1664 105.52 77.2464C102.18 77.4264 98.9998 78.3764 95.8698 79.4064C91.4998 80.8564 87.2498 82.5664 84.3798 86.5364C79.7098 92.9964 77.1898 100.166 77.1598 108.156C77.1198 116.296 80.7098 122.516 87.3898 126.956C97.4798 133.666 112.48 133.306 122.62 125.886C132.22 118.866 137.43 109.216 138.23 97.3463C138.54 92.7463 137.02 88.6264 133.7 85.2664C131.65 83.1864 129.26 81.6263 126.6 80.4863C121.17 78.1563 115.49 77.0664 109.59 77.0364H109.58Z" fill="black"/>
<path d="M73.12 93.4163C73.24 93.6063 73.42 93.6762 73.63 93.7062C73 94.4162 72.68 95.3762 71.71 96.1862C71.91 94.9162 72.72 94.2761 73.12 93.4261V93.4163Z" fill="#898989"/>
</svg>
