<svg width="100" height="100" viewBox="0 0 179 126" fill="none" xmlns="http://www.w3.org/2000/svg">
<path d="M138.219 40.07C136.669 28.9 131.759 16.2702 122.029 9.75016C116.749 6.21016 110.389 5.62013 104.209 6.22013C99.1691 6.71013 94.0891 7.4701 89.0891 8.4401C87.9691 8.4301 86.8091 8.68003 85.7191 9.12003C85.5991 9.15003 85.4791 9.1701 85.3491 9.1901C81.5491 10.0201 77.7591 11.09 74.1491 12.58C73.2091 11.82 71.7391 11.6601 70.7591 12.6601C69.8491 13.6001 68.9791 14.58 68.1291 15.57C68.0191 15.63 67.9092 15.6902 67.8092 15.7602C63.4192 18.4302 59.6691 21.98 56.5791 26.06C52.3691 31.62 49.5192 38.2801 48.3092 45.1901C46.4192 46.7801 44.8191 48.7301 43.6291 50.9101C42.7391 52.5401 43.679 54.0301 45.069 54.4601V54.4801C45.269 54.9101 45.6991 55.2701 46.1991 55.4902C44.5291 63.6902 45.9091 72.4501 50.0491 79.7101C49.2091 85.0201 53.8691 90.2701 59.4691 89.7001C63.7091 92.8601 68.6391 94.9102 73.7591 96.2502C79.9191 97.8602 86.3391 98.7101 92.6491 99.4501C98.9391 100.19 105.389 100.17 111.349 97.7702C121.399 93.7402 128.809 84.9201 133.189 75.2201C138.139 64.2701 139.869 51.95 138.219 40.05V40.07ZM116.539 12.5102C117.139 12.7702 117.719 13.0701 118.289 13.3901C118.139 13.4801 118.009 13.5901 117.889 13.7101C117.569 13.2301 117.059 12.9102 116.499 12.7602C116.519 12.6802 116.529 12.6002 116.549 12.5102H116.539ZM73.2791 70.3901C73.2091 69.8201 73.1091 69.2501 72.9891 68.6801C73.1091 68.2501 73.2491 67.8201 73.3991 67.3901L73.4491 67.4701C73.3691 68.4401 73.3191 69.4201 73.2791 70.3901ZM65.6892 27.7401C65.3692 28.7401 65.0591 29.7301 64.7391 30.7301C64.7391 30.4001 64.7391 30.0701 64.7291 29.7301C64.7291 29.6701 64.7091 29.61 64.7091 29.55C65.0291 28.94 65.3591 28.3401 65.6991 27.7401H65.6892ZM74.6191 88.3C74.2491 88.92 73.7592 89.31 73.3092 89.86C73.2292 89.96 73.1591 90.01 73.1091 90.05C73.0591 89.97 73.0091 89.89 72.9691 89.8C73.5291 89.16 74.0692 88.5 74.5592 87.81C74.5892 87.95 74.6191 88.1002 74.6491 88.2402C74.6391 88.2601 74.6291 88.28 74.6191 88.3ZM112.279 61.4301C112.139 61.5101 111.999 61.6001 111.889 61.7101C111.829 61.7701 111.779 61.83 111.719 61.88C111.679 61.84 111.629 61.8002 111.579 61.7702C111.809 61.1102 112.029 60.4402 112.249 59.7702C112.369 59.8902 112.509 59.99 112.649 60.08C112.519 60.53 112.399 60.9801 112.269 61.4201L112.279 61.4301ZM115.919 89.6C117.309 88.21 118.619 86.7201 119.839 85.1801C120.219 85.2201 120.609 85.1602 120.989 85.0102C119.449 86.7102 117.759 88.25 115.919 89.6ZM122.579 17.34C122.459 17.37 122.339 17.4001 122.219 17.4401C122.199 17.1201 122.189 16.7901 122.169 16.4701C122.169 16.3901 122.149 16.3202 122.139 16.2502C122.369 16.4702 122.589 16.6901 122.809 16.9201C122.709 17.0501 122.639 17.19 122.569 17.35L122.579 17.34ZM126.629 23.4601C126.699 22.9901 126.769 22.53 126.839 22.06C127.039 22.38 127.249 22.71 127.439 23.04C127.149 23.14 126.869 23.2801 126.629 23.4701V23.4601Z" fill="#025CBC"/>
<path d="M100.589 0C105.879 0.05 111.099 0.719805 116.219 2.0498C124.719 4.2698 130.889 9.67984 135.959 16.5898C139.299 21.1498 141.709 26.1498 143.209 31.5898C143.449 32.4398 143.629 32.5399 144.429 32.1299C148.829 29.8899 153.009 27.19 157.689 25.52C160.469 24.52 163.289 23.6899 166.339 24.1899C169.729 24.7499 171.649 26.9399 171.569 30.3499C171.489 33.8099 169.739 36.37 167.189 38.51C165.029 40.32 162.569 41.6399 160.109 42.95C155.499 45.4 150.879 47.8498 146.259 50.2898C145.759 50.5498 145.299 50.73 145.359 51.49C146.059 60.5 143.569 68.7599 139.429 76.6499C136.559 82.1099 133.539 87.4599 128.869 91.6299C124.359 95.6599 119.429 99.1298 114.139 102.04C108.319 105.24 101.939 105.58 95.5093 105.32C91.7993 105.17 88.0893 104.79 84.3793 104.99C77.4293 105.36 71.0193 103.69 65.0093 100.26C63.0393 99.13 61.0393 98.0399 59.0593 96.9299C57.4693 96.0399 56.0593 94.94 54.9993 93.46C54.4393 92.68 53.9192 92.5299 52.9892 92.8999C45.9292 95.7699 38.7193 98.2098 31.2493 99.7898C25.6693 100.97 20.1193 102.27 14.4393 102.92C12.5293 103.14 10.6092 103.09 8.70922 102.78C5.23922 102.22 3.69926 99.84 4.62926 96.46C5.32926 93.91 6.76924 91.7499 8.35924 89.6899C12.1692 84.7599 16.8793 80.8499 22.1893 77.6399C26.7693 74.8699 31.5092 72.3899 36.2392 69.9199C37.7292 69.1399 39.3092 68.5698 40.9692 68.2898C41.6192 68.1798 41.8092 68.0198 41.6992 67.3198C41.0992 63.3798 40.5292 59.4099 40.4892 55.4299C40.3792 44.6799 43.3693 34.8499 50.1193 26.3999C56.2993 18.6599 63.6892 12.2299 72.2092 7.13989C77.2492 4.12989 82.8593 2.71997 88.5193 1.46997C92.4993 0.589971 96.5092 -0.0799902 100.619 0.0100098L100.589 0ZM98.7092 7.28979C96.2092 7.38979 93.7592 7.73993 91.3192 8.17993C84.4492 9.43993 77.7493 11.2 71.9093 15.25C66.0493 19.32 60.6193 23.9199 56.0193 29.3799C49.5893 37.0199 46.3393 45.9299 46.5093 55.8999C46.6093 61.8699 47.1892 67.84 48.2192 73.74C48.9792 78.13 50.1493 82.38 52.9393 86.01C54.1793 87.62 54.8392 87.8098 56.7192 87.0398C72.8892 80.4198 88.7692 73.16 104.459 65.46C114.839 60.37 125.419 55.6698 135.669 50.3098C136.939 49.6498 137.449 48.9799 137.359 47.4199C137.119 42.9899 136.929 38.58 135.819 34.26C133.749 26.16 129.519 19.38 123.129 14.01C116.039 8.05001 107.319 7.7998 98.7092 7.2998V7.28979ZM60.8392 89.7898C63.5492 91.0098 65.8293 92.4 68.1193 93.76C73.4993 96.95 79.2493 98.3799 85.5193 97.8699C88.4593 97.6299 91.4193 98.0099 94.3692 98.1399C99.4492 98.3599 104.579 98.56 109.289 96.26C115.129 93.41 120.439 89.69 124.969 85.01C129.419 80.41 132.119 74.6699 134.669 68.8999C136.479 64.8199 137.569 60.5498 137.609 56.0498C137.609 54.7098 137.629 54.7 136.469 55.28C121.339 62.82 105.909 69.7499 90.5992 76.9199C80.8892 81.4699 71.0692 85.7698 60.8492 89.7898H60.8392ZM50.1693 89.6799C46.1893 86.2099 44.3792 81.8 43.3693 76.98C43.0093 75.26 42.6093 73.5498 42.3893 71.8098C42.2493 70.7298 41.8593 70.9799 41.2993 71.3999C39.1693 72.9699 36.8293 74.17 34.5393 75.47C31.2493 77.34 27.9193 79.1598 24.6593 81.0898C19.0993 84.3698 14.1992 88.41 10.4592 93.73C9.53922 95.04 8.72925 96.41 8.23925 97.95C7.99925 98.6899 8.20921 99.08 8.94921 99.27C10.1992 99.6 11.4692 99.7 12.7392 99.52C19.8392 98.47 26.8393 96.89 33.8093 95.21C39.3593 93.88 44.7193 91.9699 50.1693 89.6799ZM163.939 29.9399C162.419 30.0199 160.669 30.5898 158.989 31.3098C154.309 33.3098 149.819 35.77 145.029 37.52C144.549 37.7 144.499 37.9799 144.559 38.4399C144.789 40.2599 145.009 42.0799 144.959 43.9199C144.939 44.7499 145.089 45.01 145.929 44.51C149.939 42.12 154.109 40.0399 158.229 37.8499C159.919 36.9499 161.549 35.94 163.039 34.73C164.029 33.92 164.999 33.0799 165.529 31.8699C166.199 30.3399 165.909 29.8999 163.949 29.9399H163.939Z" fill="#1F1F30"/>
<path d="M178.329 92.5001C178.069 94.8301 177.709 97.3801 176.539 99.7601C175.659 101.54 174.869 103.38 174.109 105.22C171.239 112.23 166.539 117.92 161.139 123.1C159.909 124.28 158.399 125 156.819 125.6C155.969 125.93 155.129 126.1 154.589 125.2C154.059 124.33 154.499 123.57 155.219 123.01C159.469 119.7 162.449 115.28 165.609 111.03C167.439 108.58 168.579 105.76 169.819 103C171.419 99.4301 173.009 95.8699 173.259 91.8799C173.299 91.1699 173.659 90.5 174.139 89.95C174.849 89.13 175.709 88.7199 176.799 89.0999C177.829 89.4599 178.289 90.2399 178.309 91.2999C178.309 91.6199 178.309 91.9401 178.309 92.5101L178.329 92.5001Z" fill="#1F1F30"/>
<path d="M21.7492 33.8201C20.9292 33.7801 20.4393 33.2802 20.2793 32.4402C20.1093 31.5302 20.1392 30.6002 20.3392 29.7002C21.3592 25.0302 23.0192 20.6201 25.7092 16.6301C27.4192 14.0901 29.8293 12.4802 32.6393 11.4002C32.9893 11.2702 33.2692 11.3501 33.4992 11.6101C33.7892 11.9301 33.6793 12.2401 33.5293 12.6001C30.9093 18.7401 26.8292 24.1602 24.5792 30.4902C24.2792 31.3402 23.7593 32.1302 23.2793 32.9002C22.9593 33.4202 22.4692 33.7801 21.7492 33.8201Z" fill="#1F1F30"/>
<path d="M160.899 94.2301C160.859 95.2001 160.679 96.1299 160.359 97.0399C159.279 100.14 157.859 103.07 155.999 105.78C154.669 107.71 152.929 109.1 150.689 109.86C149.719 110.19 148.769 110.3 148.109 109.34C147.449 108.38 147.849 107.53 148.579 106.77C151.419 103.84 153.549 100.46 154.999 96.64C155.439 95.49 155.939 94.3499 156.649 93.3299C157.059 92.7399 157.539 92.1899 158.169 91.8299C159.509 91.0599 160.619 91.61 160.839 93.15C160.889 93.5 160.889 93.86 160.909 94.22L160.899 94.2301Z" fill="#1F1F30"/>
<path d="M1.69921 47.9002C0.879207 46.4702 0.749202 45.2003 0.569202 43.9703C-0.270798 38.3603 -0.26073 32.7703 1.13927 27.2303C1.59927 25.4003 2.29923 23.6603 3.59923 22.2403C4.50923 21.2503 5.54921 20.9303 6.32921 21.4903C7.33921 22.2203 7.18924 23.1702 6.72924 24.1602C4.94924 27.9902 4.6093 32.1303 4.0493 36.2403C3.5193 40.0603 2.81923 43.8602 1.71923 47.9002H1.69921Z" fill="#1F1F30"/>
</svg>
