<svg width="100" height="100" viewBox="0 0 153 196" fill="none" xmlns="http://www.w3.org/2000/svg">
<path d="M72.2229 46.6948C72.2229 61.0348 72.2229 75.3748 72.2229 89.7148C72.2229 90.9948 71.8029 91.4748 70.7129 91.4648C69.6929 91.4548 69.1129 90.8348 69.1129 89.6948C69.2129 61.4148 69.3129 33.1347 69.4229 4.85468C69.4229 3.77468 69.5129 2.7047 69.5929 1.6247C69.6529 0.854701 69.7428 -0.0751716 70.7528 0.00482838C71.7128 0.0748284 71.7328 0.974838 71.7828 1.76484C72.0128 5.87484 72.0028 9.98468 72.0028 14.1047C72.0128 24.9747 72.0028 35.8348 72.0028 46.7048H72.2129L72.2229 46.6948Z" fill="#1F1F30"/>
<path d="M70.5328 192.795C69.4228 186.115 69.2729 179.365 69.2329 172.625C69.1229 156.605 69.1428 140.595 69.1328 124.575C69.1328 123.185 69.2928 121.785 69.3828 120.395C69.4128 119.905 69.6028 119.465 69.8828 119.065C70.1128 118.725 70.4228 118.445 70.8728 118.495C71.3628 118.555 71.6528 118.885 71.7728 119.345C71.9928 120.195 72.2229 121.035 72.2229 121.925C72.1829 138.705 72.1928 155.475 72.1228 172.255C72.0928 178.125 71.8928 183.985 71.2528 189.835C71.1428 190.825 70.9529 191.805 70.8029 192.795H70.5428H70.5328Z" fill="#1F1F30"/>
<path d="M152.033 104.735C148.583 105.315 145.193 105.465 141.813 105.565C123.943 106.115 106.063 105.965 88.1829 106.025C86.8829 106.025 86.0129 105.385 85.0529 104.775C84.5729 104.475 84.8328 104.075 85.1228 103.765C85.5728 103.275 86.1929 103.275 86.7929 103.275C102.433 103.235 118.083 103.245 133.723 103.475C139.423 103.555 145.133 103.585 150.803 104.335C151.183 104.385 151.603 104.315 152.043 104.735H152.033Z" fill="#1F1F30"/>
<path d="M29.5728 105.475C20.9128 105.475 12.2529 105.475 3.59286 105.465C2.64286 105.465 1.68288 105.335 0.732876 105.235C0.412876 105.205 0.0427735 105.025 0.00277353 104.705C-0.0372265 104.275 0.362866 104.145 0.722866 104.045C1.58287 103.815 2.46286 103.825 3.34286 103.815C14.9129 103.715 26.4928 103.615 38.0628 103.525C43.6528 103.475 49.2428 103.455 54.8228 103.385C55.7928 103.375 56.7228 103.585 57.6628 103.735C58.2228 103.825 58.6929 104.155 58.7229 104.705C58.7529 105.225 58.3128 105.495 57.7828 105.615C57.3628 105.715 56.9728 105.905 56.5128 105.905C47.5328 105.905 38.5528 105.905 29.5728 105.905V105.485V105.475Z" fill="#1F1F30"/>
<path d="M108.403 154.955C106.223 152.995 104.503 150.655 102.833 148.275C99.6828 143.775 96.6629 139.185 93.9829 134.395C93.7229 133.935 93.0229 133.275 93.6129 132.895C94.1429 132.555 94.5628 133.415 94.9228 133.845C97.1428 136.515 98.9628 139.465 100.803 142.405C103.353 146.485 105.873 150.585 108.413 154.675V154.955H108.403Z" fill="#202031"/>
<path d="M30.0929 48.995C30.5629 48.925 30.6629 49.2249 30.8129 49.4449C34.9629 55.6749 39.1629 61.875 43.0729 68.255C43.6329 69.165 44.1129 70.1348 44.5629 71.1048C44.7729 71.5648 45.2729 72.2148 44.5729 72.5748C43.9829 72.8748 43.6929 72.205 43.4329 71.785C42.2329 69.865 40.9728 67.965 39.8828 65.985C36.7228 60.275 33.1329 54.825 30.0929 48.995Z" fill="#202031"/>
<path d="M108.623 68.1047C106.143 71.0847 103.373 73.7848 100.523 76.4048C100.313 76.5948 100.113 76.7848 99.8828 76.9448C99.5428 77.1748 99.1628 77.7049 98.7628 77.2849C98.3328 76.8349 98.9129 76.5149 99.1829 76.2349C101.643 73.7349 104.153 71.2847 106.903 69.0847C107.403 68.6847 107.903 68.2948 108.403 67.8948L108.623 68.1047Z" fill="#222233"/>
<path d="M42.5128 134.715C40.2328 136.845 38.1828 138.755 36.1228 140.665L36.4829 141.025C37.2029 139.235 40.8428 135.265 42.5128 134.715Z" fill="#2D2D3D"/>
<path d="M108.623 68.1047L108.403 67.8948C109.013 67.1748 109.683 66.5249 110.513 66.0249C110.093 66.9049 109.333 67.4847 108.613 68.1047H108.623Z" fill="#676772"/>
<path d="M28.1929 45.3848C28.8029 46.0448 29.2428 46.8048 29.5028 47.6748C28.9528 46.9748 28.3729 46.2948 28.1929 45.3848Z" fill="#7D7D86"/>
<path d="M70.5328 192.795H70.7928V195.625H70.5328V192.795Z" fill="#C5C5CA"/>
<path d="M108.403 154.955V154.675L109.693 156.265L109.443 156.465C109.083 155.975 108.573 155.615 108.403 154.965V154.955Z" fill="#7C7C86"/>
</svg>
