<svg width="50" height="50" viewBox="0 0 500 500" fill="none" xmlns="http://www.w3.org/2000/svg">
<path d="M131.802 171.008C133.752 176.156 135.679 181.31 137.472 186.524C138.455 189.276 139.41 192.052 140.573 194.727C146.798 209 153.197 223.208 159.076 237.634C162.654 246.532 166.139 255.468 169.533 264.441L174.582 277.915L179.48 291.444C180.4 294.208 181.097 297.041 181.564 299.916C181.809 301.085 181.771 302.295 181.456 303.447C181.14 304.598 180.555 305.658 179.749 306.539C177.57 309.028 174.108 308.57 172.077 305.193C170.811 302.964 169.828 300.585 169.151 298.112C167.503 292.509 165.622 286.998 163.509 281.579C161.416 276.153 159.101 270.813 156.564 265.56C155.166 262.659 153.536 259.709 152.806 256.648C150.463 246.872 146.082 237.806 142.964 228.303C140.643 221.241 137.784 214.346 135.248 207.348L128.446 188.635C126.144 182.411 123.994 176.123 121.709 169.889C120.888 167.435 120.229 164.93 119.737 162.389C119.331 159.975 119.059 157.541 118.923 155.097C118.798 152.935 120.16 152.509 121.725 154.426C123.963 157.182 126.007 160.09 127.84 163.13C128.595 164.378 129.28 165.675 129.911 167C130.487 168.349 131.064 169.702 131.638 171.047L131.802 171.008Z" fill="black"/>
<path d="M290.327 154.407L289.555 161.407L288.612 168.397C288.284 170.87 287.954 173.355 287.838 175.844C287.676 179.164 287.554 182.486 287.446 185.808L287.064 195.768L286.342 215.682L285.393 240.199L284.579 264.723C284.428 267.205 284.099 269.673 283.595 272.108C283.43 273.114 283.031 274.068 282.431 274.893C281.832 275.719 281.047 276.392 280.141 276.86C277.668 278.206 275.068 276.805 274.445 273.461C274.087 271.28 274.012 269.061 274.221 266.86C274.971 256.848 275.087 246.798 274.57 236.771C274.258 233.999 274.263 231.2 274.584 228.428C276.072 219.891 275.783 211.219 276.756 202.651C277.483 196.287 277.756 189.862 278.454 183.486C279.741 172.122 281.139 160.778 282.951 149.487C283.593 145.194 284.94 141.036 286.939 137.182C287.8 135.512 289.221 135.784 289.587 137.864C290.088 140.847 290.393 143.86 290.501 146.883C290.543 149.383 290.437 151.883 290.183 154.371L290.327 154.407Z" fill="black"/>
<path d="M422.654 225.049C420.055 228.179 417.441 231.299 414.811 234.409C413.344 236 411.973 237.676 410.705 239.43C407.43 244.171 404.259 248.986 401.091 253.799C397.916 258.607 394.714 263.39 391.437 268.118C387.414 273.95 383.332 279.737 379.263 285.533L366.959 302.854C365.631 304.577 364.098 306.132 362.393 307.483C360.802 308.842 358.536 308.872 356.08 308.173C352.501 307.154 350.073 304.039 350.981 301.153C351.619 299.33 352.627 297.66 353.943 296.248C359.665 289.662 364.591 282.426 368.621 274.688C369.746 272.546 370.761 270.2 372.537 268.605C378.181 263.495 381.849 256.895 386.823 251.293C390.502 247.122 393.778 242.616 397.377 238.375C400.586 234.593 403.822 230.837 407.087 227.107L417.117 216.112C419.718 213.229 422.97 211.009 426.602 209.637C426.96 209.476 427.358 209.426 427.745 209.494C428.132 209.561 428.49 209.742 428.774 210.014C429.057 210.286 429.252 210.637 429.335 211.021C429.418 211.405 429.384 211.805 429.237 212.169C428.368 214.691 427.351 217.159 426.189 219.56C425.1 221.435 423.874 223.227 422.52 224.921L422.654 225.049Z" fill="black"/>
<path d="M452.07 343.18C451.081 343.643 450.11 344.143 449.091 344.546L446.028 345.748C444.936 346.145 443.878 346.633 442.867 347.207C440.224 348.835 437.635 350.568 434.969 352.146C432.319 353.756 429.66 355.35 426.951 356.843C423.616 358.686 420.252 360.47 416.831 362.14L406.569 367.153C405.457 367.601 404.272 367.838 403.073 367.852C401.902 367.934 400.59 366.871 399.307 365.265C397.437 362.925 396.621 359.838 397.673 358.491C398.347 357.69 399.257 357.124 400.274 356.874C404.76 355.536 408.936 353.323 412.56 350.361C413.58 349.542 414.552 348.509 415.858 348.344C420.008 347.776 423.241 345.301 427.051 344.029C429.891 343.104 432.47 341.615 435.277 340.608C440.272 338.79 445.209 336.86 450.282 335.202C452.37 334.484 454.63 334.433 456.749 335.056C457.007 335.137 457.245 335.274 457.445 335.456C457.645 335.639 457.803 335.863 457.907 336.113C458.012 336.363 458.06 336.633 458.049 336.904C458.038 337.174 457.969 337.439 457.844 337.68C457.407 338.299 456.944 338.905 456.464 339.49C456.004 340.074 455.495 340.618 454.943 341.115C454.027 341.845 453.046 342.49 452.013 343.042L452.07 343.18Z" fill="black"/>
<path d="M54.0659 318.556C56.3315 319.859 58.5794 321.184 60.8098 322.53C61.9731 323.272 63.1801 323.943 64.4243 324.54C67.8 325.983 71.166 327.466 74.5077 329.015C77.8422 330.578 81.1144 332.267 84.3244 334.082C88.2485 336.356 92.1074 338.749 95.8593 341.303C99.6117 343.856 103.293 346.509 106.902 349.263C107.98 350.168 108.898 351.248 109.617 352.458C110.373 353.591 110.118 355.264 109.32 357.093C108.156 359.754 105.691 361.65 103.869 361.133C102.746 360.762 101.737 360.106 100.942 359.23C97.2 355.423 92.7388 352.399 87.8176 350.333C86.4587 349.743 84.9426 349.304 83.9619 348.215C80.8273 344.711 76.4936 343.026 72.8036 340.351C71.4239 339.364 69.9918 338.452 68.5136 337.62C67.0536 336.756 65.5671 335.937 64.1154 335.055C58.9354 331.916 53.7033 328.808 48.3239 325.941C46.0997 324.663 44.3444 322.705 43.3166 320.355C42.7366 319.27 43.2648 318.103 44.6899 317.548L46.1428 317.151C46.3655 317.078 46.6004 317.049 46.8342 317.067L47.4914 317.079C48.3583 317.103 49.223 317.179 50.0808 317.306C50.7687 317.416 51.4432 317.598 52.0927 317.85C52.7265 318.129 53.35 318.436 53.9868 318.704L54.0659 318.556Z" fill="black"/>
</svg>
