<svg width="80" height="80" viewBox="0 0 168 128" fill="none" xmlns="http://www.w3.org/2000/svg">
<path d="M48.74 9.87353L53.3732 41.9541C37.9508 46.667 22.518 51.3815 7.07487 56.0978C5.39303 56.4341 3.85865 57.2907 2.68588 58.5482C1.51312 59.8057 0.760467 61.4012 0.533051 63.1121C0.347726 64.8498 0.7397 66.6016 1.64766 68.0937C2.55562 69.5859 3.92841 70.7344 5.55157 71.3597L59.7854 86.074L64.8358 120.662C65.9001 128.021 78.0111 130.065 79.9658 122.203C82.3862 112.605 85.7286 103.269 89.9459 94.3258L154.195 111.561C156.153 112.249 158.296 112.16 160.187 111.313C162.079 110.465 163.577 108.924 164.376 107.001C165.104 105.035 165.034 102.858 164.183 100.939C163.331 99.0202 161.765 97.5133 159.823 96.7434L97.7372 79.8248C102.604 71.7654 108.206 64.1809 114.471 57.1691C128.509 67.7167 142.154 78.7911 155.407 90.3925C157.121 91.5986 159.233 92.0821 161.293 91.7394C163.353 91.3968 165.195 90.2552 166.426 88.5595C167.596 86.8301 168.058 84.7112 167.714 82.6444C167.37 80.5775 166.248 78.7222 164.58 77.465C152.088 66.467 139.163 55.9384 125.804 45.8792C132.384 39.9522 139.503 34.6597 147.068 30.0708C148.773 29.2367 150.126 27.8179 150.884 26.0687C151.642 24.3196 151.756 22.3544 151.205 20.5255C150.677 18.6834 149.491 17.1021 147.875 16.0862C146.259 15.0704 144.327 14.6922 142.453 15.0247L100.73 27.6344C87.8558 18.6969 74.7054 10.1488 61.2786 1.99035C59.9903 1.0506 58.4535 0.518503 56.865 0.462377C55.2765 0.406258 53.7086 0.828588 52.3619 1.67524C51.0153 2.5219 49.9512 3.75434 49.3059 5.21486C48.6607 6.67538 48.4636 8.29755 48.74 9.87353ZM36.9129 63.3726C43.1839 61.4598 49.429 59.5835 55.6688 57.6758L57.3122 68.9004C50.5211 67.0457 43.7231 65.2135 36.9181 63.404L36.9129 63.3726ZM81.7333 75.5304L73.8922 73.3888L70.9287 53.0759C79.8502 50.3678 88.7406 47.6649 97.6673 44.9882L101.659 47.8347C94.0858 56.3591 87.41 65.6508 81.7385 75.5617L81.7333 75.5304ZM68.6538 37.2863L66.7287 24.1762C71.5043 27.2466 76.2887 30.3693 81.0817 33.5441C76.9425 34.8124 72.8034 36.0807 68.659 37.3176L68.6538 37.2863Z" fill="#231F20"/>
</svg>
