<!-- Graphic -->
<svg xmlns="http://www.w3.org/2000/svg" width="500" height="500">
  <g>
    <defs>
      <linearGradient id="idMpCMogbo4g1660942873" gradientTransform="rotate(90, 0.5, 0.5)">
        <stop offset="0" stop-color="hsl(52, 100%, 50%)" stop-opacity="1"></stop>
        <stop offset="1" stop-color="#f72485" stop-opacity="1"></stop>
      </linearGradient>
    </defs>
    <path d="M 250 0 C 388.071 0 500 111.929 500 250 C 500 250.178 500 250.355 499.999 250.533 L 0.001 250.533 C 0 250.355 0 250.178 0 250 C 0 111.929 111.929 0 250 0 Z M 250 500 C 207.902 500 168.234 489.595 133.428 471.215 L 366.572 471.215 C 331.766 489.595 292.098 500 250 500 Z M 499.839 259.062 C 499.647 264.437 499.286 269.77 498.76 275.053 L 1.24 275.053 C 0.714 269.77 0.353 264.437 0.161 259.062 Z M 497.764 283.582 C 496.943 289.696 495.901 295.74 494.647 301.706 L 5.353 301.706 C 4.099 295.74 3.057 289.696 2.236 283.582 Z M 490.424 318.763 C 488.671 324.904 486.689 330.949 484.488 336.887 L 15.512 336.887 C 13.311 330.949 11.329 324.904 9.576 318.763 Z M 477.433 353.945 C 474.433 360.498 471.158 366.9 467.623 373.134 L 32.377 373.134 C 28.842 366.9 25.567 360.498 22.567 353.945 Z M 442.616 409.382 C 435.083 418.475 426.918 427.026 418.189 434.968 L 81.811 434.968 C 73.082 427.026 64.917 418.475 57.384 409.382 Z" fill="url(#idMpCMogbo4g1660942873)"></path>
  </g>
</svg>